{"title":"Tengo ganas de ti","uid":7386644,"size":1793478656,"categoryP":"video","categoryS":"movies","magnet":"?xt=urn:btih:037cfd01dbaadf3b0d8caa3da3f727e1fc8f0ad1&amp;dn=Tengo+ganas+de+ti&amp;tr=udp%3A%2F%2Ftracker.openbittorrent.com%3A80&amp;tr=udp%3A%2F%2Fopen.demonii.com%3A1337&amp;tr=udp%3A%2F%2Ftracker.coppersurfer.tk%3A6969&amp;tr=udp%3A%2F%2Fexodus.desync.com%3A6969","seeders":4,"leechers":0,"uploader":"solares","files":1,"time":1340650401,"description":"Format                         : AVI\nFormat/Info                    : Audio Video Interleave\nFile size                      : 1.67 GiB\nDuration                       : 2h 0mn\nOverall bit rate               : 1 985 Kbps\nWriting application            : VirtualDubMod 1.5.10.2 (build 2540/release)\nWriting library                : VirtualDubMod build 2540/release\n\nVideo\nID                             : 0\nFormat                         : MPEG-4 Visual\nFormat profile                 : Advanced Simple@L5\nFormat settings, BVOP          : 2\nFormat settings, QPel          : No\nFormat settings, GMC           : No warppoints\nFormat settings, Matrix        : Default (MPEG)\nCodec ID                       : XVID\nCodec ID/Hint                  : XviD\nDuration                       : 2h 0mn\nBit rate                       : 1 653 Kbps\nWidth                          : 720 pixels\nHeight                         : 400 pixels\nDisplay aspect ratio           : 16:9\nFrame rate                     : 25.000 fps\nColor space                    : YUV\nChroma subsampling             : 4:2:0\nBit depth                      : 8 bits\nScan type                      : Progressive\nCompression mode               : Lossy\nBits/(Pixel*Frame)             : 0.230\nStream size                    : 1.39 GiB (83%)\nWriting library                : XviD 64\n\nAudio\nID                             : 1\nFormat                         : MPEG Audio\nFormat version                 : Version 1\nFormat profile                 : Layer 3\nMode                           : Joint stereo\nMode extension                 : MS Stereo\nCodec ID                       : 55\nCodec ID/Hint                  : MP3\nDuration                       : 2h 0mn\nBit rate mode                  : Constant\nBit rate                       : 320 Kbps\nChannel(s)                     : 2 channels\nSampling rate                  : 44.1 KHz\nCompression mode               : Lossy\nStream size                    : 276 MiB (16%)\nAlignment                      : Aligned on interleaves\nInterleave, duration           : 26 ms (0.65 video frame)\nInterleave, preload duration   : 435 ms\nWriting library                : LAME3.98.2\n","torrent":{"xt":"urn:btih:037cfd01dbaadf3b0d8caa3da3f727e1fc8f0ad1","amp;dn":"Tengo+ganas+de+ti","amp;tr":["udp%3A%2F%2Ftracker.openbittorrent.com%3A80","udp%3A%2F%2Fopen.demonii.com%3A1337","udp%3A%2F%2Ftracker.coppersurfer.tk%3A6969","udp%3A%2F%2Fexodus.desync.com%3A6969"],"infoHash":"037cfd01dbaadf3b0d8caa3da3f727e1fc8f0ad1","infoHashBuffer":{"type":"Buffer","data":[3,124,253,1,219,170,223,59,13,140,170,61,163,247,39,225,252,143,10,209]},"announce":[],"urlList":[]}}